<svg width="79" height="59" viewBox="0 0 79 59" fill="none" xmlns="http://www.w3.org/2000/svg">
<path d="M29.1406 0.900097C29.1406 0.900097 18.3164 1.64385 11.2375 7.32822C11.2043 7.3415 11.1645 7.36142 11.1313 7.38135C9.90275 8.51689 8.9797 10.2767 7.83751 12.8001C6.69533 15.3235 5.48673 18.5708 4.38439 22.2032C2.18634 29.4747 0.400013 38.3997 0.400013 46.8001C0.393372 47.0989 0.46642 47.3911 0.612513 47.6501C3.09611 52.013 7.66486 54.6493 11.9281 56.3095C16.1914 57.9696 20.1293 58.6337 22.1281 58.7001C22.6926 58.72 23.2305 58.461 23.5625 58.0095L27.7063 52.272C31.0465 53.0622 34.9645 53.6001 39.5 53.6001C44.0356 53.6001 47.9535 53.0622 51.2938 52.272L55.4375 58.0095C55.7695 58.461 56.3074 58.72 56.8719 58.7001C58.8707 58.6337 62.8086 57.9696 67.0719 56.3095C71.3352 54.6493 75.9039 52.013 78.3875 47.6501C78.5336 47.3911 78.6067 47.0989 78.6 46.8001C78.6 38.3997 76.8137 29.4747 74.6156 22.2032C73.5133 18.5708 72.3047 15.3235 71.1625 12.8001C70.0203 10.2767 69.0973 8.51689 67.8688 7.38135C67.8356 7.36142 67.7957 7.3415 67.7625 7.32822C60.6836 1.64385 49.8594 0.900097 49.8594 0.900097C49.7332 0.886817 49.6137 0.886817 49.4875 0.900097C48.8965 0.979785 48.3984 1.36494 48.1594 1.90947C48.1594 1.90947 47.5816 3.17783 47.2031 4.99072C43.8895 4.45947 41.1004 4.3001 39.5 4.3001C37.8996 4.3001 35.1106 4.45947 31.7969 4.99072C31.4184 3.17783 30.8406 1.90947 30.8406 1.90947C30.5484 1.24541 29.8645 0.840332 29.1406 0.900097ZM28.0781 4.56572C28.2043 4.91103 28.2906 5.23642 28.3969 5.62822C24.5652 6.51807 20.3684 7.97236 16.4438 10.4095C15.8262 10.6685 15.4211 11.2661 15.4012 11.9368C15.3879 12.6009 15.7664 13.2185 16.3641 13.5106C16.9684 13.7962 17.6856 13.7099 18.1969 13.2782C26.0727 8.39736 36.0934 7.7001 39.5 7.7001C42.9067 7.7001 52.9274 8.39736 60.8031 13.2782C61.3145 13.7099 62.0317 13.7962 62.6359 13.5106C63.2336 13.2185 63.6121 12.6009 63.5988 11.9368C63.5789 11.2661 63.1738 10.6685 62.5563 10.4095C58.6316 7.97236 54.4348 6.51807 50.6031 5.62822C50.7094 5.23642 50.7957 4.91103 50.9219 4.56572C52.8609 4.80478 60.3981 5.8208 65.5313 9.87822C65.8633 10.1837 67.0188 11.8837 68.0813 14.2345C69.1438 16.5853 70.2594 19.6466 71.3219 23.1595C73.3938 30.0126 75.0672 38.4661 75.1469 46.2157C73.2145 49.3435 69.5887 51.6677 65.85 53.122C62.45 54.4435 59.2758 55.0345 57.6156 55.1938L54.7469 51.3157C56.2078 50.8442 57.5227 50.3329 58.6781 49.8282C62.968 47.9423 65.2656 45.9501 65.2656 45.9501C65.9695 45.3192 66.0293 44.2368 65.3984 43.5329C64.7676 42.829 63.6852 42.7692 62.9813 43.4001C62.9813 43.4001 61.2016 45.0271 57.2969 46.747C55.8625 47.3778 54.1227 48.0021 52.1438 48.5532C51.6856 48.5001 51.2274 48.6329 50.8688 48.9251C47.7012 49.6954 43.9359 50.2001 39.5 50.2001C35.0309 50.2001 31.259 49.6489 28.0781 48.872C27.7195 48.6329 27.2813 48.5333 26.8563 48.6063C24.8707 48.0552 23.1442 47.3778 21.7031 46.747C17.7984 45.0271 16.0188 43.4001 16.0188 43.4001C15.6336 43.0415 15.1024 42.8888 14.5844 42.9751C13.927 43.0747 13.3824 43.5462 13.2031 44.1903C13.0172 44.8278 13.2297 45.5185 13.7344 45.9501C13.7344 45.9501 16.032 47.9423 20.3219 49.8282C21.4774 50.3329 22.7922 50.8442 24.2531 51.3157L21.3844 55.1938C19.7242 55.0345 16.55 54.4435 13.15 53.122C9.41134 51.6677 5.78556 49.3435 3.85314 46.2157C3.93282 38.4661 5.60626 30.0126 7.67814 23.1595C8.74064 19.6466 9.85626 16.5853 10.9188 14.2345C11.9813 11.8837 13.1367 10.1837 13.4688 9.87822C18.602 5.8208 26.1391 4.80478 28.0781 4.56572ZM28.45 24.7001C24.1137 24.7001 20.8 28.638 20.8 33.2001C20.8 37.7622 24.1137 41.7001 28.45 41.7001C32.7863 41.7001 36.1 37.7622 36.1 33.2001C36.1 28.638 32.7863 24.7001 28.45 24.7001ZM50.55 24.7001C46.2137 24.7001 42.9 28.638 42.9 33.2001C42.9 37.7622 46.2137 41.7001 50.55 41.7001C54.8863 41.7001 58.2 37.7622 58.2 33.2001C58.2 28.638 54.8863 24.7001 50.55 24.7001ZM28.45 28.1001C30.6879 28.1001 32.7 30.2517 32.7 33.2001C32.7 36.1485 30.6879 38.3001 28.45 38.3001C26.2121 38.3001 24.2 36.1485 24.2 33.2001C24.2 30.2517 26.2121 28.1001 28.45 28.1001ZM50.55 28.1001C52.7879 28.1001 54.8 30.2517 54.8 33.2001C54.8 36.1485 52.7879 38.3001 50.55 38.3001C48.3121 38.3001 46.3 36.1485 46.3 33.2001C46.3 30.2517 48.3121 28.1001 50.55 28.1001Z" fill="white"/>
</svg>
