<svg width="44" height="32" viewBox="0 0 44 32" fill="none" xmlns="http://www.w3.org/2000/svg">
<path d="M16.2302 0.806115C16.2302 0.806115 10.2354 1.20437 6.31487 4.2482C6.29648 4.25531 6.27441 4.26597 6.25602 4.27664C5.57563 4.8847 5.06442 5.827 4.43184 7.17823C3.79927 8.52946 3.12991 10.2683 2.5194 12.2133C1.30205 16.107 0.31273 20.8861 0.31273 25.3843C0.309053 25.5443 0.349508 25.7008 0.430419 25.8394C1.80591 28.1756 4.33622 29.5873 6.69736 30.4763C9.05849 31.3653 11.2394 31.7208 12.3464 31.7564C12.659 31.7671 12.9569 31.6284 13.1408 31.3866L15.4358 28.3143C17.2857 28.7375 19.4556 29.0255 21.9675 29.0255C24.4794 29.0255 26.6493 28.7375 28.4992 28.3143L30.7942 31.3866C30.9781 31.6284 31.276 31.7671 31.5886 31.7564C32.6956 31.7208 34.8765 31.3653 37.2376 30.4763C39.5988 29.5873 42.1291 28.1756 43.5046 25.8394C43.5855 25.7008 43.6259 25.5443 43.6223 25.3843C43.6223 20.8861 42.6329 16.107 41.4156 12.2133C40.8051 10.2683 40.1357 8.52946 39.5032 7.17823C38.8706 5.827 38.3594 4.8847 37.679 4.27664C37.6606 4.26597 37.6385 4.25531 37.6201 4.2482C33.6996 1.20437 27.7048 0.806115 27.7048 0.806115C27.635 0.799003 27.5688 0.799003 27.4989 0.806115C27.1716 0.848785 26.8957 1.05503 26.7633 1.34661C26.7633 1.34661 26.4434 2.02578 26.2337 2.99653C24.3985 2.71206 22.8538 2.62672 21.9675 2.62672C21.0812 2.62672 19.5365 2.71206 17.7013 2.99653C17.4916 2.02578 17.1717 1.34661 17.1717 1.34661C17.0099 0.99102 16.631 0.774112 16.2302 0.806115ZM15.6417 2.76895C15.7116 2.95386 15.7594 3.1281 15.8183 3.33789C13.6962 3.81438 11.3718 4.59311 9.19825 5.89812C8.85621 6.0368 8.63187 6.35683 8.62084 6.71597C8.61348 7.07156 8.82311 7.40225 9.15411 7.55871C9.48879 7.71161 9.88599 7.66539 10.1692 7.43425C14.531 4.82069 20.0808 4.44732 21.9675 4.44732C23.8542 4.44732 29.404 4.82069 33.7658 7.43425C34.049 7.66539 34.4462 7.71161 34.7809 7.55871C35.1119 7.40225 35.3215 7.07156 35.3142 6.71597C35.3031 6.35683 35.0788 6.0368 34.7368 5.89812C32.5632 4.59311 30.2388 3.81438 28.1167 3.33789C28.1756 3.1281 28.2234 2.95386 28.2933 2.76895C29.3672 2.89697 33.5415 3.44101 36.3844 5.61365C36.5683 5.77722 37.2082 6.68752 37.7967 7.9463C38.3851 9.20508 39.003 10.8443 39.5914 12.7254C40.7389 16.395 41.6657 20.9217 41.7098 25.0714C40.6396 26.7462 38.6315 27.9907 36.5609 28.7695C34.6779 29.4771 32.9199 29.7936 32.0005 29.8789L30.4117 27.8023C31.2208 27.5498 31.949 27.276 32.5889 27.0058C34.9648 25.9959 36.2373 24.9291 36.2373 24.9291C36.6271 24.5913 36.6602 24.0117 36.3108 23.6348C35.9615 23.2579 35.362 23.2259 34.9721 23.5637C34.9721 23.5637 33.9865 24.4349 31.824 25.3558C31.0296 25.6936 30.066 26.0279 28.97 26.323C28.7162 26.2946 28.4625 26.3657 28.2639 26.5222C26.5096 26.9346 24.4243 27.2049 21.9675 27.2049C19.4924 27.2049 17.4034 26.9097 15.6417 26.4937C15.4431 26.3657 15.2004 26.3124 14.965 26.3515C13.8653 26.0563 12.9091 25.6936 12.111 25.3558C9.94851 24.4349 8.96287 23.5637 8.96287 23.5637C8.74956 23.3717 8.45534 23.2899 8.16847 23.3361C7.80437 23.3894 7.50279 23.6419 7.40349 23.9868C7.30051 24.3282 7.4182 24.698 7.69771 24.9291C7.69771 24.9291 8.97023 25.9959 11.3461 27.0058C11.986 27.276 12.7142 27.5498 13.5233 27.8023L11.9345 29.8789C11.0151 29.7936 9.25709 29.4771 7.37407 28.7695C5.30348 27.9907 3.29541 26.7462 2.22518 25.0714C2.26931 20.9217 3.19611 16.395 4.34358 12.7254C4.93202 10.8443 5.54989 9.20508 6.13833 7.9463C6.72678 6.68752 7.36671 5.77722 7.5506 5.61365C10.3935 3.44101 14.5678 2.89697 15.6417 2.76895ZM15.8477 13.5503C13.4461 13.5503 11.6109 15.659 11.6109 18.1019C11.6109 20.5447 13.4461 22.6534 15.8477 22.6534C18.2493 22.6534 20.0845 20.5447 20.0845 18.1019C20.0845 15.659 18.2493 13.5503 15.8477 13.5503ZM28.0873 13.5503C25.6857 13.5503 23.8505 15.659 23.8505 18.1019C23.8505 20.5447 25.6857 22.6534 28.0873 22.6534C30.4889 22.6534 32.3241 20.5447 32.3241 18.1019C32.3241 15.659 30.4889 13.5503 28.0873 13.5503ZM15.8477 15.371C17.0871 15.371 18.2015 16.5231 18.2015 18.1019C18.2015 19.6807 17.0871 20.8328 15.8477 20.8328C14.6083 20.8328 13.4939 19.6807 13.4939 18.1019C13.4939 16.5231 14.6083 15.371 15.8477 15.371ZM28.0873 15.371C29.3267 15.371 30.4411 16.5231 30.4411 18.1019C30.4411 19.6807 29.3267 20.8328 28.0873 20.8328C26.8479 20.8328 25.7335 19.6807 25.7335 18.1019C25.7335 16.5231 26.8479 15.371 28.0873 15.371Z" fill="white"/>
</svg>
