<svg width="44" height="42" viewBox="0 0 44 42" fill="none" xmlns="http://www.w3.org/2000/svg">
<path d="M12.7354 0C5.74475 0 0 5.54689 0 12.3132V29.5636C0 36.3224 5.73706 41.8768 12.7354 41.8768H30.5771C37.5677 41.8768 43.3125 36.3299 43.3125 29.5636V12.3132C43.3125 5.55432 37.5754 0 30.5771 0H12.7354ZM12.7354 3.80698H30.5771C35.4452 3.80698 39.375 7.60652 39.375 12.3132V29.5636C39.375 34.2702 35.4452 38.0698 30.5771 38.0698H12.7354C7.86731 38.0698 3.9375 34.2702 3.9375 29.5636V12.3132C3.9375 7.60652 7.86731 3.80698 12.7354 3.80698ZM33.2842 7.97086C32.2921 7.97086 31.5 8.73672 31.5 9.6959C31.5 10.6551 32.2921 11.4209 33.2842 11.4209C34.2762 11.4209 35.0684 10.6551 35.0684 9.6959C35.0684 8.73672 34.2762 7.97086 33.2842 7.97086ZM21.6562 9.51745C15.1578 9.51745 9.84375 14.6554 9.84375 20.9384C9.84375 27.2214 15.1578 32.3593 21.6562 32.3593C28.1547 32.3593 33.4688 27.2214 33.4688 20.9384C33.4688 14.6554 28.1547 9.51745 21.6562 9.51745ZM21.6562 13.3244C26.0321 13.3244 29.5312 16.7076 29.5312 20.9384C29.5312 25.1692 26.0321 28.5523 21.6562 28.5523C17.2804 28.5523 13.7812 25.1692 13.7812 20.9384C13.7812 16.7076 17.2804 13.3244 21.6562 13.3244Z" fill="white"/>
</svg>
