<svg width="44" height="42" viewBox="0 0 44 42" fill="none" xmlns="http://www.w3.org/2000/svg">
<path d="M5.77851 0.966797C2.94324 0.966797 0.622559 3.14268 0.622559 5.80106V36.7403C0.622559 39.3987 2.94324 41.5746 5.77851 41.5746H38.7766C41.6119 41.5746 43.9326 39.3987 43.9326 36.7403V5.80106C43.9326 3.14268 41.6119 0.966797 38.7766 0.966797H5.77851ZM5.77851 2.9005H38.7766C40.4971 2.9005 41.8702 4.18788 41.8702 5.80106V36.7403C41.8702 38.3535 40.4971 39.6409 38.7766 39.6409H5.77851C4.05799 39.6409 2.68494 38.3535 2.68494 36.7403V5.80106C2.68494 4.18788 4.05799 2.9005 5.77851 2.9005ZM10.9345 7.74609C9.80508 7.74609 8.78878 8.0626 8.03625 8.65629C7.28373 9.24998 6.82179 10.1369 6.82179 11.0866C6.82179 12.8919 8.49187 14.2993 10.6162 14.4385L10.6203 14.4404C10.7215 14.4728 10.8275 14.49 10.9345 14.4914C13.2784 14.4914 15.0471 12.952 15.0471 11.0866C15.047 11.0696 15.0463 11.0526 15.0451 11.0357C14.9402 9.19841 13.1932 7.74609 10.9345 7.74609ZM10.9345 9.65713C12.3701 9.65713 12.937 10.2583 12.9989 11.1112C12.9863 11.9391 12.4401 12.5803 10.9345 12.5803C9.50585 12.5803 8.86 11.8944 8.86 11.0866C8.86 10.6828 9.01717 10.3784 9.3474 10.1179C9.67762 9.85738 10.2077 9.65713 10.9345 9.65713ZM7.84089 15.4696C7.56741 15.4696 7.30514 15.5715 7.11176 15.7528C6.91838 15.9341 6.80973 16.18 6.8097 16.4364V34.8066C6.80973 35.063 6.91838 35.3089 7.11176 35.4903C7.30514 35.6716 7.56741 35.7734 7.84089 35.7735H14.028C14.3015 35.7734 14.5638 35.6716 14.7572 35.4903C14.9505 35.3089 15.0592 35.063 15.0592 34.8066V29.1358V16.4364C15.0592 16.18 14.9505 15.9341 14.7572 15.7528C14.5638 15.5715 14.3015 15.4696 14.028 15.4696H7.84089ZM17.1216 15.4696C16.8481 15.4696 16.5859 15.5715 16.3925 15.7528C16.1991 15.9341 16.0904 16.18 16.0904 16.4364V34.8066C16.0904 35.063 16.1991 35.3089 16.3925 35.4903C16.5859 35.6716 16.8481 35.7734 17.1216 35.7735H23.3088C23.5822 35.7734 23.8445 35.6716 24.0379 35.4903C24.2313 35.3089 24.3399 35.063 24.3399 34.8066V25.1381C24.3399 24.3359 24.5734 23.538 24.9844 23.0156C25.3955 22.4931 25.914 22.1796 26.8998 22.196C27.9163 22.2124 28.4544 22.5389 28.8615 23.0514C29.2685 23.564 29.4959 24.3324 29.4959 25.1381V34.8066C29.4959 35.063 29.6046 35.3089 29.798 35.4903C29.9913 35.6716 30.2536 35.7734 30.5271 35.7735H36.7142C36.9877 35.7734 37.25 35.6716 37.4434 35.4903C37.6367 35.3089 37.7454 35.063 37.7454 34.8066V24.4243C37.7454 21.5609 36.8408 19.2928 35.2903 17.7583C33.7397 16.2238 31.5832 15.4696 29.3025 15.4696C27.135 15.4696 25.4854 16.1511 24.3399 16.8462V16.4364C24.3399 16.18 24.2313 15.9341 24.0379 15.7528C23.8445 15.5715 23.5822 15.4696 23.3088 15.4696H17.1216ZM8.87208 17.4033H12.9968V29.1358V33.8398H8.87208V17.4033ZM18.1528 17.4033H22.2776V18.9121C22.2776 19.1148 22.3456 19.3124 22.472 19.4769C22.5984 19.6414 22.7767 19.7645 22.9818 19.8288C23.1868 19.8931 23.4083 19.8954 23.6148 19.8352C23.8213 19.7751 24.0024 19.6556 24.1325 19.4937C24.1325 19.4937 25.7518 17.4033 29.3025 17.4033C31.1106 17.4033 32.661 17.9665 33.7939 19.0877C34.9267 20.2089 35.683 21.9361 35.683 24.4243V33.8398H31.5583V25.1381C31.5583 24.0101 31.27 22.8439 30.517 21.8957C29.764 20.9476 28.4975 20.2875 26.936 20.2623C25.3665 20.2362 24.0796 20.91 23.3249 21.8693C22.5701 22.8286 22.2776 24.0066 22.2776 25.1381V33.8398H18.1528V17.4033Z" fill="white"/>
</svg>
